<svg xmlns="http://www.w3.org/2000/svg" xmlns:xlink="http://www.w3.org/1999/xlink" viewBox="0 0 1200 1200"><defs><style>.cls-1{fill:#fff;}.cls-2{fill:#99ddc9;}.cls-10,.cls-11,.cls-3,.cls-4,.cls-5,.cls-6,.cls-7{fill:none;stroke-linecap:round;stroke-miterlimit:10;}.cls-3,.cls-4,.cls-5,.cls-6,.cls-7{stroke-width:21.83px;}.cls-3{stroke:url(#linear-gradient);}.cls-4{stroke:url(#linear-gradient-2);}.cls-5{stroke:#f2b7b1;}.cls-6{stroke:#99ddc9;}.cls-7{stroke:url(#linear-gradient-3);}.cls-8{fill:#80bcad;}.cls-9{fill:#f28482;}.cls-10{stroke:#000;}.cls-10,.cls-11{stroke-width:10.52px;}.cls-11{stroke:#fff;}</style><linearGradient id="linear-gradient" x1="610.36" y1="557.47" x2="897.65" y2="557.47" gradientUnits="userSpaceOnUse"><stop offset="0" stop-color="#99ddc9"/><stop offset="0.05" stop-color="#96d1c0"/><stop offset="0.16" stop-color="#93c0b4"/><stop offset="0.29" stop-color="#90b5ab"/><stop offset="0.48" stop-color="#8eaea6"/><stop offset="1" stop-color="#8eaca5"/></linearGradient><linearGradient id="linear-gradient-2" x1="563.01" y1="520.38" x2="638.04" y2="520.38" gradientUnits="userSpaceOnUse"><stop offset="0" stop-color="#f28482"/><stop offset="1" stop-color="#84a59d"/></linearGradient><linearGradient id="linear-gradient-3" x1="302.7" y1="463.23" x2="589.99" y2="463.23" gradientUnits="userSpaceOnUse"><stop offset="0.46" stop-color="#f28482"/><stop offset="0.72" stop-color="#f28684"/><stop offset="0.81" stop-color="#f28d8a"/><stop offset="0.88" stop-color="#f39895"/><stop offset="0.94" stop-color="#f4a9a5"/><stop offset="0.98" stop-color="#f5bfb9"/><stop offset="1" stop-color="#f5cac3"/></linearGradient></defs><g id="Layer_2" data-name="Layer 2"><rect class="cls-1" x="0.17" width="1200" height="800"/><rect class="cls-1" x="0.17" y="800" width="600" height="400"/><rect class="cls-2" x="600" y="800" width="600" height="400"/><path class="cls-3" d="M621.28,520.38v36.7a37.68,37.68,0,0,0,37.88,37.49H849.25a37.29,37.29,0,0,0,37.48-37.1h0a37.29,37.29,0,0,0-37.48-37.09H754"/><line class="cls-4" x1="573.93" y1="520.38" x2="627.12" y2="520.38"/><path class="cls-5" d="M504.09,331.9V109.38c0-22.18,16.79-40.15,37.49-40.15h0c20.7,0,37.49,18,37.49,40.15V557.47"/><path class="cls-6" d="M660.86,520.38H621.28v-417a34.16,34.16,0,0,1,34.16-34.17h6.65a34.16,34.16,0,0,1,34.16,34.17V485A35.39,35.39,0,0,1,660.86,520.38Z"/><path class="cls-7" d="M579.07,520.38v37a37.4,37.4,0,0,1-37.6,37.2H351.27a37.46,37.46,0,0,1-37.66-37.26V369A37.3,37.3,0,0,1,351.1,331.9h0A37.29,37.29,0,0,1,388.58,369V483.43a37.15,37.15,0,0,0,37.34,36.95Z"/><path class="cls-8" d="M644.86,635.25v55.47h35.35a10.15,10.15,0,0,1,6.49,1.82,5.64,5.64,0,0,1,2.26,4.58,5.5,5.5,0,0,1-2.23,4.55q-2.24,1.74-6.52,1.74h-42.1q-5.7,0-8.2-2.24T627.42,694v-58.7q0-4.68,2.38-7a8.52,8.52,0,0,1,6.25-2.34,8.87,8.87,0,0,1,6.37,2.31Q644.87,630.51,644.86,635.25Z"/><path class="cls-8" d="M759,694.78l-4.11-9.57h-35L715.79,695a33.27,33.27,0,0,1-4.11,7.72q-1.71,2-5.58,2a8.75,8.75,0,0,1-5.82-2.13,6.24,6.24,0,0,1-2.52-4.84,9.67,9.67,0,0,1,.58-3.22q.58-1.66,1.94-4.63l22-49.5,2.27-5.12a25.1,25.1,0,0,1,2.81-5,11,11,0,0,1,3.94-3.2,13.26,13.26,0,0,1,6-1.22,13.47,13.47,0,0,1,6.08,1.22,11.32,11.32,0,0,1,3.93,3.14,21.65,21.65,0,0,1,2.53,4.14q1,2.21,2.61,5.9L775,689.48q2.64,5.61,2.64,8.16a6.44,6.44,0,0,1-2.49,4.86,8.79,8.79,0,0,1-6,2.21,8.68,8.68,0,0,1-3.52-.65,7,7,0,0,1-2.47-1.77,15.48,15.48,0,0,1-2.14-3.43C760.21,697.32,759.56,696,759,694.78Zm-34.53-21.16H750.2l-13-31.46Z"/><path class="cls-8" d="M789.59,695.3V671.12l-21-28.86a60,60,0,0,1-3.91-6.08,8.46,8.46,0,0,1-1.14-3.79,5.77,5.77,0,0,1,2.32-4.58,8.65,8.65,0,0,1,5.72-1.92,7.51,7.51,0,0,1,5.44,1.79,55,55,0,0,1,5.55,7.15L798.64,658l16.26-23.14,2.47-3.59a23.25,23.25,0,0,1,2.2-2.73,8.68,8.68,0,0,1,2.67-2,8.59,8.59,0,0,1,3.59-.67,8.14,8.14,0,0,1,5.49,1.89,5.67,5.67,0,0,1,2.2,4.4,8.27,8.27,0,0,1-1.12,4.05,50.07,50.07,0,0,1-3.81,5.62L807,671.12V695.3q0,4.73-2.46,7.07a9.66,9.66,0,0,1-12.57,0C790.4,700.85,789.59,698.49,789.59,695.3Z"/><path class="cls-9" d="M422.74,634.59v39.94a67,67,0,0,1-.5,8.84,25.28,25.28,0,0,1-2.26,7.38,21,21,0,0,1-9.69,9.8q-6.75,3.51-16.44,3.51a38.19,38.19,0,0,1-14.6-2.44,20.61,20.61,0,0,1-9.42-7.91,27,27,0,0,1-3.05-6.7,24.25,24.25,0,0,1-1.18-7.23,6.87,6.87,0,0,1,2.29-5.57,8.84,8.84,0,0,1,5.87-1.92,7.07,7.07,0,0,1,5.23,1.77,11.82,11.82,0,0,1,2.7,5.51,46.41,46.41,0,0,0,2,6.4,9.62,9.62,0,0,0,3.35,4.1q2.34,1.73,6.69,1.72,11.56,0,11.57-15V634.59q0-4.67,2.32-7a8.49,8.49,0,0,1,6.31-2.34,8.76,8.76,0,0,1,6.43,2.34Q422.75,629.92,422.74,634.59Z"/><path class="cls-9" d="M444.16,694.65V634.59q0-4.67,2.41-7a8.54,8.54,0,0,1,6.22-2.34,8.87,8.87,0,0,1,6.37,2.31q2.44,2.31,2.44,7v60.06q0,4.73-2.44,7.07a8.81,8.81,0,0,1-6.37,2.34,8.51,8.51,0,0,1-6.19-2.37Q444.16,699.34,444.16,694.65Z"/><path class="cls-9" d="M532.94,634.59v39.94a67,67,0,0,1-.5,8.84,25.9,25.9,0,0,1-2.26,7.38,21,21,0,0,1-9.69,9.8q-6.76,3.51-16.45,3.51a38.17,38.17,0,0,1-14.59-2.44,20.58,20.58,0,0,1-9.43-7.91,27,27,0,0,1-3-6.7,24.54,24.54,0,0,1-1.17-7.23,6.87,6.87,0,0,1,2.29-5.57,8.81,8.81,0,0,1,5.87-1.92,7.09,7.09,0,0,1,5.23,1.77,11.82,11.82,0,0,1,2.7,5.51,46.58,46.58,0,0,0,2,6.4,9.77,9.77,0,0,0,3.35,4.1,11.19,11.19,0,0,0,6.7,1.72q11.56,0,11.57-15V634.59q0-4.67,2.32-7a8.47,8.47,0,0,1,6.31-2.34,8.78,8.78,0,0,1,6.43,2.34C532.14,629.14,532.94,631.48,532.94,634.59Z"/><path class="cls-9" d="M554.36,694.65V634.59q0-4.67,2.4-7a8.57,8.57,0,0,1,6.23-2.34,8.87,8.87,0,0,1,6.37,2.31c1.62,1.54,2.44,3.89,2.44,7v60.06c0,3.15-.82,5.51-2.44,7.07a8.81,8.81,0,0,1-6.37,2.34,8.53,8.53,0,0,1-6.2-2.37Q554.36,699.34,554.36,694.65Z"/><path class="cls-10" d="M310.35,1064.3V1082a18.16,18.16,0,0,0,18.26,18.07h91.62a18,18,0,0,0,18.07-17.88h0a18,18,0,0,0-18.07-17.88H374.32"/><line class="cls-10" x1="287.52" y1="1064.3" x2="313.16" y2="1064.3"/><path class="cls-10" d="M253.86,973.46V866.2c0-10.69,8.09-19.35,18.07-19.35h0c10,0,18.07,8.66,18.07,19.35v216"/><path class="cls-10" d="M329.9,1064.3H310.35V862.86a16,16,0,0,1,16-16h4.13a16,16,0,0,1,16,16v184.86A16.58,16.58,0,0,1,329.9,1064.3Z"/><path class="cls-10" d="M290,1064.3v17.83a18,18,0,0,1-18.12,17.93H180.2a18.06,18.06,0,0,1-18.15-18V991.33a18,18,0,0,1,18.07-17.87h0a18,18,0,0,1,18.07,17.87v55.16a17.9,17.9,0,0,0,18,17.81Z"/><path d="M321.71,1119.67v26.74h17a4.92,4.92,0,0,1,3.13.87,2.72,2.72,0,0,1,1.09,2.21,2.65,2.65,0,0,1-1.08,2.19,5,5,0,0,1-3.14.84H318.46a5.85,5.85,0,0,1-3.95-1.08,4.44,4.44,0,0,1-1.2-3.48v-28.29a4.58,4.58,0,0,1,1.14-3.39,4.13,4.13,0,0,1,3-1.12,4.3,4.3,0,0,1,3.07,1.11A4.51,4.51,0,0,1,321.71,1119.67Z"/><path d="M376.73,1148.36l-2-4.61H357.88l-2,4.71a16.16,16.16,0,0,1-2,3.72,3.35,3.35,0,0,1-2.69,1,4.18,4.18,0,0,1-2.8-1,3,3,0,0,1-1.22-2.33,4.58,4.58,0,0,1,.28-1.55c.19-.54.5-1.28.94-2.23L359,1122.15c.3-.69.67-1.51,1.09-2.47a11.69,11.69,0,0,1,1.36-2.39,5.19,5.19,0,0,1,1.9-1.54,6.32,6.32,0,0,1,2.9-.59,6.43,6.43,0,0,1,2.93.59,5.38,5.38,0,0,1,1.89,1.51,10.42,10.42,0,0,1,1.22,2q.5,1.07,1.26,2.85l10.84,23.71a10.78,10.78,0,0,1,1.27,3.93,3.1,3.1,0,0,1-1.2,2.34,4.23,4.23,0,0,1-2.9,1.07,4.34,4.34,0,0,1-1.7-.31,3.47,3.47,0,0,1-1.19-.86,7.83,7.83,0,0,1-1-1.65C377.31,1149.59,377,1148.93,376.73,1148.36Zm-16.64-10.2h12.4L366.23,1123Z"/><path d="M391.47,1148.61V1137l-10.13-13.91a28,28,0,0,1-1.88-2.93,4,4,0,0,1-.55-1.83,2.81,2.81,0,0,1,1.11-2.21,4.24,4.24,0,0,1,2.76-.92,3.6,3.6,0,0,1,2.62.86,26,26,0,0,1,2.68,3.45l7.75,11.15,7.84-11.15,1.19-1.73a11.34,11.34,0,0,1,1.06-1.32,4.27,4.27,0,0,1,1.29-.94,4.08,4.08,0,0,1,1.73-.32,3.89,3.89,0,0,1,2.64.91,2.74,2.74,0,0,1,1.07,2.12,4,4,0,0,1-.54,2,23.8,23.8,0,0,1-1.84,2.71L399.88,1137v11.65a4.5,4.5,0,0,1-1.19,3.41,4.64,4.64,0,0,1-6.06,0A4.55,4.55,0,0,1,391.47,1148.61Z"/><path d="M214.65,1119.35v19.25a32.1,32.1,0,0,1-.24,4.26,12.12,12.12,0,0,1-1.09,3.56,10,10,0,0,1-4.67,4.72,17,17,0,0,1-7.92,1.7,18.42,18.42,0,0,1-7-1.18,10,10,0,0,1-4.54-3.81,12.6,12.6,0,0,1-1.47-3.23,11.77,11.77,0,0,1-.57-3.49,3.32,3.32,0,0,1,1.1-2.68,4.26,4.26,0,0,1,2.84-.93,3.38,3.38,0,0,1,2.51.86,5.66,5.66,0,0,1,1.31,2.65,21.72,21.72,0,0,0,1,3.08,4.68,4.68,0,0,0,1.61,2,5.36,5.36,0,0,0,3.23.83q5.58,0,5.58-7.24v-20.33a4.63,4.63,0,0,1,1.11-3.38,4.11,4.11,0,0,1,3-1.13,4.25,4.25,0,0,1,3.1,1.13A4.56,4.56,0,0,1,214.65,1119.35Z"/><path d="M225,1148.3v-29a4.49,4.49,0,0,1,1.16-3.38,4.12,4.12,0,0,1,3-1.13,4.27,4.27,0,0,1,3.07,1.12,4.47,4.47,0,0,1,1.17,3.39v29a4.53,4.53,0,0,1-1.17,3.41,4.27,4.27,0,0,1-3.07,1.13,4.11,4.11,0,0,1-3-1.14A4.55,4.55,0,0,1,225,1148.3Z"/><path d="M267.77,1119.35v19.25a32.1,32.1,0,0,1-.24,4.26,12.42,12.42,0,0,1-1.09,3.56,10.07,10.07,0,0,1-4.67,4.72,17,17,0,0,1-7.93,1.7,18.36,18.36,0,0,1-7-1.18,10,10,0,0,1-4.55-3.81,13.32,13.32,0,0,1-1.47-3.23,11.77,11.77,0,0,1-.57-3.49,3.3,3.3,0,0,1,1.11-2.68,4.23,4.23,0,0,1,2.83-.93,3.42,3.42,0,0,1,2.52.86A5.66,5.66,0,0,1,248,1141a21.72,21.72,0,0,0,1,3.08,4.63,4.63,0,0,0,1.62,2,5.32,5.32,0,0,0,3.22.83q5.58,0,5.58-7.24v-20.33a4.6,4.6,0,0,1,1.12-3.38,4.09,4.09,0,0,1,3-1.13,4.23,4.23,0,0,1,3.1,1.13A4.56,4.56,0,0,1,267.77,1119.35Z"/><path d="M278.09,1148.3v-29a4.53,4.53,0,0,1,1.16-3.38,4.12,4.12,0,0,1,3-1.13,4.25,4.25,0,0,1,3.07,1.12,4.47,4.47,0,0,1,1.18,3.39v29a4.54,4.54,0,0,1-1.18,3.41,4.26,4.26,0,0,1-3.07,1.13,4.13,4.13,0,0,1-3-1.14A4.55,4.55,0,0,1,278.09,1148.3Z"/><path class="cls-11" d="M910.17,1064.3V1082a18.17,18.17,0,0,0,18.26,18.07h91.62a18,18,0,0,0,18.07-17.88h0a18,18,0,0,0-18.07-17.88h-45.9"/><line class="cls-11" x1="887.35" y1="1064.3" x2="912.99" y2="1064.3"/><path class="cls-11" d="M853.69,973.46V866.2c0-10.69,8.09-19.35,18.07-19.35h0c10,0,18.07,8.66,18.07,19.35v216"/><path class="cls-11" d="M929.72,1064.3H910.17V862.86a16,16,0,0,1,16-16h4.12a16,16,0,0,1,16,16v184.86A16.58,16.58,0,0,1,929.72,1064.3Z"/><path class="cls-11" d="M889.83,1064.3v17.83a18,18,0,0,1-18.13,17.93H780a18.05,18.05,0,0,1-18.15-18V991.33A18,18,0,0,1,780,973.46h0A18,18,0,0,1,798,991.33v55.16a17.9,17.9,0,0,0,18,17.81Z"/><path class="cls-1" d="M921.54,1119.67v26.74h17a4.87,4.87,0,0,1,3.12.87,2.72,2.72,0,0,1,1.09,2.21,2.64,2.64,0,0,1-1.07,2.19,5,5,0,0,1-3.14.84h-20.3a5.87,5.87,0,0,1-3.95-1.08,4.44,4.44,0,0,1-1.2-3.48v-28.29a4.55,4.55,0,0,1,1.15-3.39,4.11,4.11,0,0,1,3-1.12,4.27,4.27,0,0,1,3.07,1.11A4.47,4.47,0,0,1,921.54,1119.67Z"/><path class="cls-1" d="M976.56,1148.36l-2-4.61H957.71l-2,4.71a15.41,15.41,0,0,1-2,3.72,3.33,3.33,0,0,1-2.69,1,4.2,4.2,0,0,1-2.8-1,3,3,0,0,1-1.22-2.33,4.6,4.6,0,0,1,.29-1.55c.19-.54.5-1.28.93-2.23l10.62-23.86c.3-.69.66-1.51,1.09-2.47a11.69,11.69,0,0,1,1.35-2.39,5.36,5.36,0,0,1,1.9-1.54,6.32,6.32,0,0,1,2.9-.59,6.4,6.4,0,0,1,2.93.59,5.42,5.42,0,0,1,1.9,1.51,11,11,0,0,1,1.22,2q.5,1.07,1.26,2.85l10.84,23.71a11,11,0,0,1,1.27,3.93,3.1,3.1,0,0,1-1.2,2.34,4.24,4.24,0,0,1-2.9,1.07,4.3,4.3,0,0,1-1.7-.31,3.47,3.47,0,0,1-1.19-.86,7.44,7.44,0,0,1-1-1.65C977.14,1149.59,976.82,1148.93,976.56,1148.36Zm-16.65-10.2h12.4L966.06,1123Z"/><path class="cls-1" d="M991.3,1148.61V1137l-10.13-13.91a28.47,28.47,0,0,1-1.89-2.93,4.16,4.16,0,0,1-.55-1.83,2.79,2.79,0,0,1,1.12-2.21,4.2,4.2,0,0,1,2.76-.92,3.62,3.62,0,0,1,2.62.86,27.11,27.11,0,0,1,2.67,3.45l7.76,11.15,7.84-11.15,1.19-1.73a10.38,10.38,0,0,1,1.06-1.32,4.15,4.15,0,0,1,1.29-.94,4,4,0,0,1,1.72-.32,3.91,3.91,0,0,1,2.65.91,2.73,2.73,0,0,1,1.06,2.12,4,4,0,0,1-.54,2,23.8,23.8,0,0,1-1.84,2.71L999.71,1137v11.65a4.5,4.5,0,0,1-1.19,3.41,4.26,4.26,0,0,1-3,1.13,4.15,4.15,0,0,1-3-1.12A4.55,4.55,0,0,1,991.3,1148.61Z"/><path class="cls-1" d="M814.48,1119.35v19.25a32.1,32.1,0,0,1-.24,4.26,12.42,12.42,0,0,1-1.09,3.56,10.07,10.07,0,0,1-4.67,4.72,17,17,0,0,1-7.93,1.7,18.36,18.36,0,0,1-7-1.18,10,10,0,0,1-4.55-3.81,13.32,13.32,0,0,1-1.47-3.23,11.74,11.74,0,0,1-.56-3.49,3.29,3.29,0,0,1,1.1-2.68,4.25,4.25,0,0,1,2.83-.93,3.42,3.42,0,0,1,2.52.86,5.57,5.57,0,0,1,1.3,2.65,21.72,21.72,0,0,0,1,3.08,4.71,4.71,0,0,0,1.62,2,5.32,5.32,0,0,0,3.22.83q5.58,0,5.58-7.24v-20.33a4.6,4.6,0,0,1,1.12-3.38,4.09,4.09,0,0,1,3-1.13,4.23,4.23,0,0,1,3.1,1.13A4.52,4.52,0,0,1,814.48,1119.35Z"/><path class="cls-1" d="M824.8,1148.3v-29A4.53,4.53,0,0,1,826,1116a4.15,4.15,0,0,1,3-1.13A4.24,4.24,0,0,1,832,1116a4.43,4.43,0,0,1,1.18,3.39v29a4.5,4.5,0,0,1-1.18,3.41,4.24,4.24,0,0,1-3.07,1.13,4.09,4.09,0,0,1-3-1.14A4.52,4.52,0,0,1,824.8,1148.3Z"/><path class="cls-1" d="M867.59,1119.35v19.25a32.1,32.1,0,0,1-.24,4.26,12.12,12.12,0,0,1-1.09,3.56,10,10,0,0,1-4.67,4.72,17,17,0,0,1-7.92,1.7,18.42,18.42,0,0,1-7-1.18,10,10,0,0,1-4.54-3.81,12.6,12.6,0,0,1-1.47-3.23,11.77,11.77,0,0,1-.57-3.49,3.32,3.32,0,0,1,1.1-2.68,4.25,4.25,0,0,1,2.83-.93,3.39,3.39,0,0,1,2.52.86,5.66,5.66,0,0,1,1.31,2.65,21.72,21.72,0,0,0,1,3.08,4.68,4.68,0,0,0,1.61,2,5.36,5.36,0,0,0,3.23.83q5.58,0,5.57-7.24v-20.33a4.64,4.64,0,0,1,1.12-3.38,4.11,4.11,0,0,1,3.05-1.13,4.25,4.25,0,0,1,3.1,1.13A4.56,4.56,0,0,1,867.59,1119.35Z"/><path class="cls-1" d="M877.92,1148.3v-29a4.49,4.49,0,0,1,1.16-3.38,4.12,4.12,0,0,1,3-1.13,4.27,4.27,0,0,1,3.07,1.12,4.47,4.47,0,0,1,1.17,3.39v29a4.53,4.53,0,0,1-1.17,3.41,4.27,4.27,0,0,1-3.07,1.13,4.11,4.11,0,0,1-3-1.14A4.55,4.55,0,0,1,877.92,1148.3Z"/></g></svg>