<svg xmlns="http://www.w3.org/2000/svg" viewBox="0 0 616 616"><defs><style>.cls-1{fill:#fff;}</style></defs><g id="Layer_2" data-name="Layer 2"><g id="Layer_6" data-name="Layer 6"><path class="cls-1" d="M394.63,357.39h49.89a145.17,145.17,0,0,1-237.06,55.28V547.61a257.56,257.56,0,0,1-44.6-24.12V308a145.15,145.15,0,0,1,287.72-27.27H403.94a99.74,99.74,0,1,0-9.31,76.66Z"/><path class="cls-1" d="M308,296.76v44.6H565.66q-1,8.1-2.56,16C540,477.25,434.59,567.79,308,567.79A259.81,259.81,0,0,1,162.86,92.51a259.85,259.85,0,0,1,360.62,70.35h56.23C527.83,65.94,425.62,0,308,0A306.76,306.76,0,0,0,162.86,36.27C65.94,88.15,0,190.37,0,308S65.94,527.84,162.86,579.73A306.76,306.76,0,0,0,308,616c153.29,0,280.42-112,304-258.61q1.29-8,2.16-16A311.56,311.56,0,0,0,616,308q0-5.64-.21-11.24Z"/></g></g></svg>